<?xml version="1.0" standalone="no"?>
<!DOCTYPE svg PUBLIC "-//W3C//DTD SVG 20010904//EN"
 "http://www.w3.org/TR/2001/REC-SVG-20010904/DTD/svg10.dtd">
<svg version="1.0" xmlns="http://www.w3.org/2000/svg"
 width="1638.000000pt" height="1638.000000pt" viewBox="0 0 1638.000000 1638.000000"
 preserveAspectRatio="xMidYMid meet">
<metadata>
Created by potrace 1.14, written by Peter Selinger 2001-2017
</metadata>
<g transform="translate(0.000000,1638.000000) scale(0.100000,-0.100000)"
fill="#000000" stroke="none">
<path d="M8038 14192 c-59 -23 -121 -122 -208 -327 -23 -55 -48 -112 -56 -126
-8 -15 -23 -45 -35 -66 -27 -51 -78 -107 -116 -126 -16 -9 -67 -25 -114 -37
-94 -23 -127 -35 -249 -92 -221 -103 -383 -255 -483 -453 -50 -99 -56 -124
-41 -161 34 -83 107 -83 222 1 48 34 182 73 307 89 262 32 311 62 463 276 71
99 183 213 257 262 113 73 156 129 205 261 27 74 32 107 35 232 4 128 -14 190
-70 243 -35 32 -75 40 -117 24z"/>
<path d="M7769 14186 c-2 -2 -22 -7 -44 -10 -22 -3 -62 -11 -90 -16 -81 -16
-109 -21 -135 -25 -183 -28 -320 -61 -396 -95 -64 -29 -99 -64 -149 -150 -25
-44 -50 -80 -55 -80 -6 0 -10 21 -10 48 0 28 -7 57 -16 71 -14 20 -22 22 -56
17 -21 -4 -47 -10 -56 -15 -9 -5 -35 -14 -57 -20 -25 -7 -44 -19 -51 -33 -6
-13 -31 -63 -56 -113 -26 -49 -58 -115 -73 -145 -31 -66 -51 -98 -124 -210
-48 -73 -192 -265 -210 -280 -3 -3 -31 -34 -61 -70 -252 -296 -304 -402 -304
-615 0 -129 17 -214 60 -295 31 -59 59 -90 138 -149 53 -40 71 -49 96 -46 102
13 211 160 259 348 27 103 31 134 36 278 6 174 19 248 66 363 56 135 195 295
364 420 22 17 42 33 45 36 14 17 231 155 292 186 113 57 164 73 259 84 109 12
171 40 209 91 35 49 82 169 95 247 3 18 12 64 20 104 14 65 15 85 4 74z"/>
<path d="M8887 14048 c-26 -69 -37 -132 -42 -241 -10 -205 -16 -313 -19 -342
-11 -98 -27 -165 -52 -222 -16 -35 -92 -106 -139 -130 -16 -9 -32 -19 -35 -22
-10 -13 -120 -61 -197 -86 -77 -24 -161 -39 -278 -49 -96 -8 -182 -44 -244
-101 -69 -64 -86 -77 -151 -115 -75 -43 -106 -57 -209 -95 -86 -32 -144 -83
-155 -136 -4 -19 -9 -68 -12 -109 -9 -120 -62 -299 -84 -285 -11 7 -19 82 -25
215 -5 134 -15 197 -39 253 -19 42 -116 -2 -198 -91 -75 -83 -91 -105 -129
-178 -39 -74 -45 -96 -54 -199 -19 -224 -122 -382 -348 -534 -282 -189 -326
-310 -170 -466 105 -105 211 -121 400 -59 77 25 115 53 129 96 4 13 22 47 40
76 19 29 34 55 34 58 0 14 94 144 127 175 63 59 139 79 368 94 205 13 221 28
260 250 26 145 77 239 194 356 132 133 143 149 155 227 18 122 190 265 221
184 6 -17 -11 -33 -29 -26 -19 7 -55 -34 -65 -74 -5 -20 -12 -58 -15 -84 -5
-44 -53 -146 -89 -189 -9 -10 -17 -21 -17 -23 0 -3 -31 -38 -69 -78 -107 -112
-128 -139 -152 -189 -39 -84 -7 -127 99 -134 75 -5 165 -28 234 -60 60 -28 76
-30 113 -13 22 10 115 133 115 152 0 4 12 19 26 34 22 23 25 24 20 7 -22 -80
-4 -114 63 -120 71 -6 70 -18 -5 -73 -113 -83 -224 -104 -394 -74 -99 17 -171
18 -206 3 -32 -13 -73 -66 -118 -150 -31 -60 -38 -69 -79 -112 -39 -41 -78
-58 -144 -65 -82 -7 -97 -11 -120 -31 -30 -27 -50 -71 -59 -133 -4 -30 -9 -58
-10 -62 -1 -5 -2 -16 -3 -25 0 -9 -4 -13 -8 -9 -4 4 -9 42 -10 84 -6 162 -34
226 -97 226 -63 0 -128 -81 -213 -265 -99 -212 -146 -256 -353 -325 -47 -16
-86 -32 -88 -36 -2 -5 -11 -8 -20 -8 -20 0 -155 -86 -193 -123 -153 -148 -228
-355 -228 -632 -1 -99 -1 -112 -2 -127 -1 -17 9 -89 22 -156 15 -75 36 -122
72 -159 33 -36 67 -49 139 -58 62 -7 121 -27 248 -85 98 -45 184 -74 255 -86
17 -3 37 -8 45 -11 8 -3 26 -7 40 -9 14 -2 41 -6 60 -10 19 -4 42 -9 50 -10 8
-2 39 -6 68 -8 29 -3 56 -8 60 -10 4 -2 34 -7 67 -10 33 -4 78 -9 100 -11 22
-3 60 -7 85 -10 25 -2 63 -6 85 -9 35 -4 101 -9 240 -21 22 -2 81 -6 130 -9
50 -3 119 -8 155 -11 75 -6 221 -14 365 -20 173 -7 308 -16 360 -22 28 -3 57
-5 65 -5 39 1 173 -29 195 -44 61 -40 55 -78 -34 -231 -18 -32 -37 -60 -42
-63 -4 -3 -20 -32 -34 -64 -53 -119 -73 -255 -80 -540 -5 -203 -15 -459 -20
-511 -2 -22 -7 -80 -10 -130 -13 -212 -32 -371 -46 -395 -6 -12 -9 -9 -10 10
-1 14 -3 50 -5 80 -2 30 -6 206 -9 390 -9 591 -21 877 -40 978 -1 9 -6 36 -10
59 -8 50 -20 61 -34 35 -27 -50 -44 -192 -45 -374 -1 -71 -3 -128 -6 -128 -3
0 -5 -51 -6 -113 0 -108 -11 -321 -19 -382 -2 -16 -7 -57 -10 -90 -6 -65 -14
-131 -19 -155 -1 -8 -6 -31 -10 -50 -8 -39 -14 -70 -16 -85 -1 -5 -5 0 -10 13
-5 12 -12 127 -15 255 -9 340 -16 449 -36 522 -6 22 -12 45 -14 50 -11 48 -39
79 -88 100 -40 17 -60 12 -88 -22 -23 -27 -53 -129 -64 -212 -3 -23 -7 -46 -9
-50 -3 -6 -15 -116 -21 -196 -2 -22 -6 -74 -10 -115 -3 -41 -8 -104 -10 -140
-2 -36 -6 -103 -9 -150 -3 -47 -9 -130 -12 -185 -3 -55 -7 -118 -9 -140 -2
-22 -6 -87 -10 -145 -4 -58 -9 -112 -11 -120 -1 -8 -3 -28 -3 -44 -2 -58 -15
-14 -17 57 -2 39 -5 140 -8 222 -6 162 -23 295 -38 295 -11 0 -34 -21 -37 -35
-1 -5 -7 -28 -13 -50 -15 -51 -18 -64 -23 -97 -10 -65 -27 -112 -35 -98 -14
25 -20 114 -25 375 -7 372 -15 613 -20 680 -16 186 -31 265 -51 265 -31 0 -53
-117 -59 -308 -2 -75 -7 -153 -10 -172 -8 -47 -41 -120 -54 -120 -6 0 -11 -7
-11 -15 0 -8 -4 -15 -8 -15 -8 0 -13 -3 -99 -70 -87 -67 -103 -118 -109 -355
-14 -596 -14 -587 -29 -684 -11 -72 -18 -97 -36 -126 -21 -35 -37 -100 -44
-182 -3 -32 -8 -76 -10 -98 -3 -22 -8 -134 -11 -250 -6 -199 -8 -224 -18 -214
-5 4 -14 110 -21 254 -3 50 -8 128 -10 175 -3 47 -7 126 -10 175 -3 50 -8 122
-11 160 -3 39 -7 93 -9 120 -9 120 -16 192 -20 220 -3 17 -7 48 -9 71 -7 68
-18 114 -26 114 -46 0 -74 -265 -74 -710 0 -205 10 -523 18 -570 2 -14 7 -68
11 -121 3 -53 8 -109 11 -125 3 -16 7 -45 9 -64 4 -52 14 -119 41 -280 29
-176 32 -192 58 -301 8 -37 17 -78 20 -90 36 -184 185 -647 272 -847 8 -17 21
-49 30 -70 9 -20 29 -65 45 -100 16 -35 29 -65 29 -68 0 -6 171 -348 200 -399
13 -22 35 -62 50 -90 15 -27 55 -97 89 -153 33 -57 61 -108 61 -113 0 -5 5 -9
10 -9 6 0 10 -4 10 -9 0 -15 272 -438 339 -527 9 -12 23 -32 31 -44 51 -75
357 -470 380 -490 3 -3 15 -17 26 -32 47 -61 140 -163 328 -362 72 -76 146
-154 164 -173 34 -38 44 -32 13 8 -10 13 -20 29 -22 34 -2 6 -53 84 -113 175
-60 91 -119 181 -131 200 -123 193 -280 483 -360 665 -9 22 -21 49 -26 60 -8
19 -31 75 -34 85 -1 3 -6 16 -12 30 -47 114 -130 408 -152 540 -27 163 -28
170 -37 295 -14 167 -7 591 11 684 2 14 8 51 21 146 2 17 29 145 38 180 53
214 152 442 276 636 19 29 40 61 47 69 6 8 33 44 60 80 26 36 52 70 58 76 5 7
30 36 55 65 89 106 346 357 496 484 25 22 52 45 58 50 6 6 34 28 61 50 28 21
52 42 55 46 3 3 124 97 270 209 146 112 267 206 270 209 3 3 39 33 80 66 41
33 84 67 95 77 11 9 31 26 45 38 57 48 226 208 269 254 25 27 57 61 71 76 26
27 34 37 110 136 144 189 249 404 333 684 19 63 37 129 40 145 3 17 10 57 16
90 6 33 14 78 17 100 10 60 10 431 0 500 -10 70 -13 90 -20 113 -3 9 -7 33
-10 52 -14 94 -84 287 -158 435 -35 70 -141 241 -158 255 -3 3 -21 25 -40 50
-125 162 -363 356 -582 474 -73 40 -270 118 -328 131 -8 2 -55 13 -104 25 -50
11 -106 23 -125 26 -20 2 -45 6 -56 9 -130 27 -606 27 -775 0 -14 -2 -41 -7
-60 -10 -19 -2 -46 -7 -60 -10 -14 -3 -38 -8 -55 -11 -16 -2 -48 -10 -70 -15
-22 -6 -41 -11 -42 -11 -2 1 -33 -8 -70 -19 -38 -11 -77 -21 -88 -24 -11 -2
-47 -12 -80 -20 -33 -8 -87 -18 -120 -21 -51 -6 -58 -4 -48 8 10 12 98 61 113
63 3 0 21 8 40 18 58 27 309 121 410 152 43 13 279 74 305 78 17 3 53 10 80
15 28 6 68 13 90 16 23 4 50 8 61 10 11 2 47 7 79 11 33 4 69 9 80 11 95 17
591 26 675 11 19 -3 58 -9 85 -13 28 -4 55 -8 60 -10 6 -1 21 -5 35 -8 51 -11
66 -15 120 -34 117 -41 298 -125 395 -182 28 -16 58 -33 68 -36 9 -3 17 -10
17 -15 0 -5 4 -9 9 -9 12 0 115 -63 119 -72 2 -5 8 -8 12 -8 5 0 35 -16 67
-35 31 -19 61 -31 64 -27 13 13 32 309 31 476 -2 283 -57 405 -325 726 -73 87
-188 219 -229 261 -27 28 -89 121 -84 126 16 17 147 -90 327 -268 223 -221
345 -319 395 -319 56 0 119 103 154 254 31 132 28 231 -11 308 -23 45 -35 113
-21 122 18 11 36 -3 67 -51 36 -56 44 -76 53 -128 9 -50 7 -312 -2 -380 -4
-27 -8 -68 -10 -90 -2 -22 -7 -67 -10 -100 -4 -33 -8 -78 -11 -100 -2 -22 -7
-67 -10 -100 -39 -346 -39 -622 1 -812 9 -43 17 -82 18 -88 22 -111 143 -375
290 -634 42 -73 76 -136 76 -138 0 -3 8 -17 19 -31 10 -15 37 -63 61 -107 23
-44 48 -87 54 -95 7 -8 21 -32 31 -52 11 -21 22 -38 26 -38 5 0 49 139 54 170
1 3 11 38 24 79 12 41 24 83 27 94 2 11 10 43 18 71 8 28 17 65 20 81 11 57
15 75 20 83 2 4 7 28 10 52 3 25 12 81 20 125 8 44 18 105 21 135 4 30 8 66
10 80 26 195 26 747 0 880 -3 14 -7 45 -10 70 -12 93 -36 229 -61 335 -14 61
-27 121 -30 133 -21 104 -146 461 -209 597 -16 33 -29 62 -29 65 -5 21 -150
293 -208 390 -36 60 -150 235 -157 240 -3 3 -20 25 -36 50 -32 47 -214 277
-274 345 -122 138 -461 462 -585 560 -28 22 -53 42 -56 45 -3 3 -17 11 -33 19
-25 13 -29 13 -41 -4 -12 -17 -42 -116 -51 -170 -2 -11 -4 -21 -5 -22 -2 -2
-3 -6 -4 -10 -1 -5 -7 -37 -15 -73 -7 -36 -15 -76 -18 -90 -3 -14 -7 -36 -9
-50 -2 -14 -11 -61 -19 -105 -9 -44 -19 -100 -21 -125 -3 -25 -10 -49 -15 -55
-5 -5 -9 51 -10 145 -2 528 -16 665 -70 734 -21 27 -131 88 -181 100 -23 5
-27 2 -32 -22 -18 -93 -25 -208 -31 -512 -5 -258 -11 -347 -23 -335 -4 4 -7
10 -8 13 0 4 -3 14 -6 22 -7 17 -28 98 -32 120 -6 36 -39 136 -48 148 -6 6 -8
12 -4 12 7 0 -33 78 -44 85 -11 7 -29 -81 -35 -170 -3 -38 -7 -89 -10 -112 -2
-23 -7 -82 -10 -130 -3 -49 -7 -115 -10 -148 -2 -33 -7 -114 -10 -180 -3 -66
-7 -160 -10 -210 -2 -49 -7 -153 -10 -230 -3 -77 -8 -185 -11 -240 -2 -55 -7
-145 -9 -200 -5 -124 -19 -352 -30 -486 -6 -65 -22 -138 -25 -109 -4 50 -21
329 -25 425 -2 44 -6 141 -9 215 -11 269 -18 475 -31 950 -25 909 -39 1164
-71 1288 -17 63 -34 87 -70 96 -43 11 -77 -19 -88 -78 -15 -84 -24 -328 -26
-740 -1 -114 -3 -207 -5 -205 -3 4 -7 36 -19 149 -8 75 -17 162 -22 220 -2 30
-6 75 -9 100 -2 25 -7 74 -10 110 -3 36 -7 72 -10 80 -2 8 -6 46 -10 83 -3 37
-8 78 -11 90 -2 12 -6 39 -9 62 -5 33 -10 63 -20 105 -1 3 -5 24 -9 47 -4 22
-15 48 -24 57 -42 37 -273 97 -320 82 -34 -11 -53 -69 -69 -201 -7 -69 -17
-74 -21 -12 -8 158 -16 211 -35 235 -18 22 -34 13 -50 -30z m1476 -1405 c-1
-132 -16 -178 -28 -87 -12 96 -6 228 12 257 12 19 18 -44 16 -170z m-3016
-6938 c0 -8 -4 -12 -9 -9 -4 3 -8 9 -8 15 0 5 4 9 8 9 5 0 9 -7 9 -15z"/>
<path d="M8319 13955 c-1 -20 -2 -30 -14 -185 -6 -81 -26 -182 -44 -218 -54
-111 -89 -148 -207 -218 -50 -29 -108 -72 -129 -95 -36 -40 -37 -42 -19 -60
11 -10 37 -22 60 -27 42 -9 290 -8 334 3 14 3 39 8 55 10 246 43 365 213 359
515 -3 151 -4 160 -12 160 -5 0 -9 -6 -10 -12 -2 -28 -42 -194 -58 -237 -10
-28 -15 0 -20 96 -2 54 -7 126 -10 160 -6 66 -25 105 -43 87 -23 -22 -70 -188
-107 -374 -3 -13 -7 -26 -8 -28 -3 -3 -29 104 -39 163 -2 11 -7 27 -10 35 -3
8 -15 59 -28 113 -23 99 -47 154 -50 112z"/>
<path d="M5523 13263 c-64 -43 -170 -148 -260 -256 -12 -14 -23 -39 -25 -54
-3 -24 2 -29 32 -40 158 -55 311 99 313 315 1 60 -12 68 -60 35z"/>
<path d="M4843 12618 c-140 -182 -303 -425 -303 -452 0 -14 75 -47 335 -151
94 -37 184 -74 202 -81 52 -23 158 -48 176 -41 12 5 14 12 8 34 -44 146 -65
224 -86 314 -50 221 -179 479 -239 479 -8 0 -50 -46 -93 -102z"/>
<path d="M4597 11798 c-26 -35 -44 -98 -52 -183 -2 -27 -7 -68 -9 -90 -16
-131 -22 -304 -27 -722 -2 -134 -7 -243 -11 -243 -4 0 -8 17 -9 38 0 20 -2 46
-5 57 -2 11 -6 34 -9 50 -10 69 -36 242 -40 275 -11 82 -28 184 -44 270 -29
148 -44 185 -49 118 -3 -37 -18 -59 -27 -37 -3 8 -16 43 -28 78 -13 36 -28 66
-34 68 -14 5 -22 -53 -29 -202 -3 -66 -7 -138 -9 -160 -2 -22 -4 -57 -4 -77
-1 -52 -17 -48 -25 5 -4 24 -9 55 -11 68 -2 13 -6 42 -10 64 -3 22 -7 47 -10
55 -2 8 -6 36 -10 62 -3 26 -9 58 -14 70 -7 21 -8 21 -15 -8 -4 -16 -25 -85
-47 -154 -38 -124 -65 -258 -74 -375 -3 -33 -7 -80 -10 -105 -33 -311 -33
-987 1 -1235 9 -64 9 -68 23 -110 45 -137 148 -170 336 -109 250 82 499 249
625 419 54 73 70 109 81 178 13 85 42 139 124 227 135 144 223 279 259 394 15
47 17 78 13 165 -3 58 -9 122 -12 141 -3 19 -15 91 -26 159 -12 68 -23 134
-25 145 -2 12 -7 37 -10 56 -13 81 -70 193 -127 253 -24 25 -102 81 -159 115
l-38 21 -1 -102 c-1 -56 -3 -140 -4 -187 -2 -47 -4 -123 -4 -169 -1 -90 -5
-100 -15 -36 -4 22 -17 106 -31 186 -33 196 -47 228 -58 136 -3 -27 -30 -67
-44 -67 -30 2 -68 71 -79 141 -10 71 -12 82 -24 134 -13 59 -43 95 -79 95 -14
0 -35 7 -45 15 -11 8 -16 15 -12 15 5 0 3 6 -3 13 -6 8 -12 35 -14 60 -1 25
-5 49 -9 52 -3 4 -17 -9 -31 -27z"/>
</g>
</svg>
