<?xml version="1.0" standalone="no"?>
<!DOCTYPE svg PUBLIC "-//W3C//DTD SVG 20010904//EN"
 "http://www.w3.org/TR/2001/REC-SVG-20010904/DTD/svg10.dtd">
<svg version="1.0" xmlns="http://www.w3.org/2000/svg"
 width="512.000000pt" height="512.000000pt" viewBox="0 0 512.000000 512.000000"
 preserveAspectRatio="xMidYMid meet">
<metadata>
Created by potrace 1.11, written by Peter Selinger 2001-2013
</metadata>
<g transform="translate(0.000000,512.000000) scale(0.100000,-0.100000)"
fill="#000000" stroke="none">
<path d="M1849 5031 c-269 -137 -464 -275 -655 -465 -174 -175 -275 -313 -367
-506 -43 -91 -104 -256 -113 -307 -3 -14 -11 -53 -18 -87 -44 -194 -41 -448 8
-676 70 -328 249 -654 487 -888 64 -63 64 -63 69 -35 5 27 5 27 90 28 81 0 84
-1 90 -24 l6 -25 194 0 195 -1 0 -25 c0 -24 3 -25 67 -28 l67 -3 -2 -69 -2
-70 122 0 123 0 0 -35 0 -35 170 0 170 0 0 28 0 27 123 0 122 0 0 30 c1 29 3
30 45 31 110 4 99 -4 102 71 l3 68 240 -2 c241 -2 476 -11 484 -19 3 -3 5 -19
5 -37 1 -30 3 -32 31 -28 38 4 126 74 230 183 269 279 431 596 499 981 20 111
26 341 13 437 -4 25 -9 63 -12 85 -31 226 -138 485 -286 693 -73 102 -100 133
-214 247 -177 178 -363 311 -605 436 -114 59 -160 81 -160 75 0 -2 26 -23 58
-47 87 -65 270 -254 339 -350 65 -90 131 -206 156 -274 8 -22 18 -49 23 -60
41 -111 35 -258 -13 -323 -78 -103 -173 -86 -418 76 -134 89 -262 128 -357
109 -51 -10 -63 -21 -25 -25 31 -2 141 -48 190 -79 61 -39 134 -116 213 -228
72 -101 134 -168 300 -325 124 -117 193 -226 240 -377 19 -61 22 -91 19 -180
-2 -60 -8 -124 -13 -143 -16 -59 -58 -173 -79 -214 l-20 -38 -37 32 c-80 71
-144 183 -218 380 -62 166 -105 245 -166 307 -52 52 -130 97 -202 117 -22 7
-21 5 9 -20 81 -66 118 -118 155 -215 34 -91 41 -136 41 -279 0 -116 -3 -158
-20 -250 -8 -44 -76 -263 -84 -272 -7 -8 -154 102 -214 160 -118 113 -198 279
-201 417 -1 49 19 56 62 20 31 -26 51 -34 35 -12 -6 6 -20 38 -32 71 -57 155
-17 332 104 461 87 91 199 144 295 139 27 -1 50 -1 50 1 0 3 -24 22 -52 44
-73 54 -163 85 -227 78 -62 -7 -145 -43 -193 -86 -36 -31 -38 -32 -80 -20 -54
14 -108 14 -156 -2 -46 -15 -134 -71 -176 -111 -17 -16 -55 -41 -84 -54 -82
-38 -161 -97 -212 -160 -22 -28 -61 -96 -57 -100 2 -2 21 15 42 38 42 44 104
77 145 78 24 0 24 -1 -10 -27 -97 -76 -185 -203 -205 -298 l-6 -30 23 30 c50
65 104 118 140 136 20 10 40 19 43 19 3 0 -8 -20 -24 -44 -49 -71 -76 -139
-127 -323 -63 -229 -115 -329 -221 -426 l-31 -29 -30 79 c-72 185 -107 445
-83 602 27 169 85 279 192 364 l34 27 -35 -10 c-56 -16 -132 -57 -171 -92 -77
-71 -121 -149 -185 -328 -59 -164 -118 -271 -190 -347 l-66 -68 -25 55 c-35
76 -40 88 -57 145 -42 139 -44 284 -5 404 48 149 155 292 330 443 59 51 144
147 204 232 74 105 134 171 188 209 64 45 175 97 215 100 39 3 24 15 -30 24
-62 10 -151 -3 -218 -34 -25 -11 -100 -55 -168 -97 -134 -84 -230 -126 -276
-119 -137 20 -185 170 -122 383 65 221 310 540 544 708 25 17 41 32 36 32 -5
-1 -61 -27 -125 -59z m908 -1396 c43 0 49 -2 40 -14 -20 -24 -108 -60 -135
-55 -50 9 -66 39 -37 67 10 11 25 13 47 9 18 -4 56 -7 85 -7z"/>
<path d="M1283 2010 c1 -35 7 -64 14 -68 11 -7 28 -7 111 -3 8 1 12 21 12 66
l0 65 -69 0 -70 0 2 -60z"/>
<path d="M3049 2002 c0 -4 -2 -103 -2 -220 l-2 -212 45 -1 c46 -1 367 -1 385
0 6 1 10 80 10 219 l0 217 -217 2 c-120 1 -218 -2 -219 -5z"/>
<path d="M3509 1985 c0 -8 0 -37 0 -65 0 -110 -8 -100 71 -100 l70 0 0 90 0
90 -70 0 c-55 0 -70 -3 -71 -15z"/>
<path d="M1509 1961 c-1 -3 -2 -102 -3 -218 -1 -184 1 -213 14 -214 60 -4 294
2 302 8 6 3 36 7 67 8 l56 1 1 195 c1 107 0 202 -3 211 -4 16 -24 17 -219 16
-117 0 -215 -3 -215 -7z"/>
<path d="M2825 1871 c-3 -2 -5 -12 -5 -22 0 -13 9 -19 38 -21 l37 -3 0 -60 c0
-33 4 -63 8 -66 5 -4 28 -5 50 -4 l42 2 2 87 c2 47 -1 87 -5 87 -21 4 -164 4
-167 0z"/>
<path d="M2576 1801 c-2 -3 -1 -15 2 -26 2 -11 7 -75 9 -142 l5 -123 138 0
c102 0 139 3 142 13 3 10 2 189 -1 264 -1 23 -2 23 -147 21 -80 -1 -147 -4
-148 -7z"/>
<path d="M2130 1632 c0 -82 2 -93 17 -90 15 3 17 -11 17 -126 l1 -130 42 -1
c31 -1 43 3 46 15 4 15 20 17 115 17 61 1 111 -2 110 -6 -2 -22 7 -27 45 -26
l42 1 0 220 0 219 -217 0 -218 0 0 -93z"/>
<path d="M1851 1520 c-11 -8 -8 -290 4 -291 56 -6 278 -2 283 5 7 13 5 276 -2
284 -7 7 -275 9 -285 2z"/>
<path d="M2970 1470 c0 -29 4 -40 15 -40 11 0 15 -12 15 -50 l0 -50 75 0 75 0
0 90 0 90 -90 0 -90 0 0 -40z"/>
<path d="M2679 1358 c-1 -77 -1 -178 0 -214 l1 -30 147 0 148 1 1 148 1 147
-149 0 -148 0 -1 -52z"/>
<path d="M2279 1295 c-5 0 -4 -175 1 -176 27 -5 114 -3 123 3 7 4 12 31 12 60
0 29 5 53 10 53 20 0 32 15 31 37 -1 22 -5 23 -88 23 -49 0 -89 0 -89 0z"/>
<path d="M2439 1195 c-1 -11 -1 -40 -1 -65 l0 -45 -99 1 -99 1 0 -138 c-1 -77
-1 -184 -1 -239 0 -55 0 -138 1 -184 l0 -83 65 1 65 0 0 127 0 126 185 0 c102
0 188 3 191 6 4 3 7 32 8 64 l1 58 60 1 60 0 5 62 c3 37 1 63 -5 65 -5 2 -35
3 -65 3 l-55 -1 -3 -62 -3 -63 -189 0 -190 0 0 60 c0 41 4 60 13 61 6 0 92 1
190 1 157 0 177 2 178 17 0 9 2 39 2 66 l2 50 -87 1 c-48 0 -91 3 -95 7 -3 4
-7 33 -7 64 l-1 57 -62 1 c-56 0 -63 -2 -64 -20z"/>
<path d="M902 1030 c1 -30 -1 -60 -5 -66 -3 -6 -28 -10 -54 -9 -26 1 -53 0
-59 -2 -8 -3 -11 -62 -11 -194 l0 -189 67 0 67 0 -1 190 -2 190 51 1 c172 2
315 0 323 -5 5 -3 8 -30 7 -61 -3 -60 -8 -57 75 -57 59 0 57 -2 55 65 l-2 62
-61 -1 c-56 -1 -62 1 -63 20 0 12 -1 41 -2 66 l-2 45 -193 0 -192 1 2 -56z"/>
<path d="M1510 765 l0 -322 63 1 62 1 1 110 c1 61 2 117 3 127 1 14 21 16 189
15 l187 -2 1 -125 1 -125 49 -2 c91 -3 83 -33 81 325 l-2 317 -62 1 -63 0 -1
-30 c0 -17 -1 -75 -1 -128 l-1 -98 -188 0 c-144 0 -189 3 -190 13 -1 6 -2 64
-3 127 l-1 115 -62 1 -63 1 0 -322z"/>
<path d="M2970 1020 l0 -67 88 -1 c48 0 106 -1 129 -1 l42 -1 -2 -187 -2 -188
-105 -1 c-58 -1 -115 -2 -127 -3 -21 -1 -23 -6 -23 -61 0 -40 4 -61 13 -62 6
0 150 -2 320 -2 l307 -2 0 62 c0 41 -4 63 -12 66 -7 2 -64 3 -125 3 -95 -1
-113 2 -114 15 0 24 0 312 0 340 l1 25 122 0 123 0 3 66 3 66 -321 0 -320 -1
0 -66z"/>
<path d="M3842 1081 c-5 -4 -8 -32 -8 -63 1 -32 -3 -59 -9 -61 -5 -2 -34 -3
-62 -2 -33 1 -53 -2 -54 -9 -1 -6 -2 -35 -3 -63 -1 -59 -5 -56 87 -55 28 1 37
-3 38 -16 1 -9 2 -39 3 -66 l1 -50 190 0 189 -1 1 -60 0 -60 -240 -1 c-132 -1
-247 -2 -255 -3 -13 -1 -16 -14 -15 -63 l1 -63 258 0 257 -1 -1 31 c-1 16 -2
45 -1 63 l1 32 63 0 63 0 0 65 0 65 -63 0 c-58 0 -63 2 -64 23 0 12 -1 40 -2
62 l-2 40 -190 5 -190 5 -1 58 c0 51 2 57 20 58 12 0 127 1 256 2 l235 2 0 65
0 65 -248 1 c-136 0 -251 -2 -255 -5z"/>
<path d="M1287 693 c-2 -5 -3 -32 -2 -60 1 -29 -1 -54 -4 -54 -3 -1 -86 -3
-184 -4 -202 -1 -198 0 -194 -80 l2 -50 190 0 190 0 0 60 1 60 64 5 65 5 0 62
0 63 -62 0 c-34 0 -64 -3 -66 -7z"/>
<path d="M2750 571 l0 -129 63 1 62 2 5 40 c3 22 4 79 2 128 l-3 87 -65 0 -64
0 0 -129z"/>
<path d="M790 301 l0 -98 80 0 c44 -1 79 2 79 5 -3 20 3 30 19 34 15 4 18 15
18 58 -1 45 -4 53 -22 56 -19 3 -20 -1 -18 -56 l2 -59 -59 1 -59 2 0 57 0 57
45 -3 c46 -2 83 14 72 32 -4 5 -40 10 -82 10 l-75 1 0 -97z"/>
<path d="M1909 393 c0 -2 0 -30 0 -63 0 -33 0 -75 0 -94 l1 -33 79 0 c59 0 78
4 77 13 -3 22 -13 26 -67 28 -42 1 -53 5 -55 19 -2 16 5 18 59 15 47 -2 62 -7
62 -18 0 -8 8 -16 18 -18 12 -2 17 3 17 17 0 14 -6 21 -19 21 -14 0 -19 6 -18
20 1 12 8 20 20 20 12 0 17 6 15 18 -2 9 -12 16 -21 16 -10 -1 -17 3 -16 10 4
31 -3 34 -76 33 -41 0 -75 -2 -76 -4z m149 -46 c24 -16 0 -27 -58 -27 -50 0
-58 2 -55 18 2 9 4 18 4 18 4 5 99 -3 109 -9z"/>
<path d="M3028 383 c-3 -15 -3 -129 1 -170 2 -20 31 -15 32 5 4 58 2 57 52 62
59 7 72 0 69 -42 -2 -27 1 -34 18 -35 19 -2 20 4 20 98 0 91 -2 99 -19 99 -16
0 -19 -7 -18 -37 l2 -38 -60 0 -60 0 -1 35 c0 38 -28 56 -36 23z"/>
<path d="M4146 391 c-2 -3 -3 -46 -2 -96 1 -77 3 -90 19 -93 14 -3 17 4 17 36
l0 40 50 4 c67 4 70 2 70 -42 0 -32 3 -39 19 -37 16 1 19 8 17 37 -1 24 -7 36
-19 38 -24 5 -22 42 2 42 12 0 18 6 17 17 -4 25 -27 28 -33 4 -5 -18 -13 -21
-64 -21 -51 0 -59 3 -59 18 0 16 8 18 60 17 55 -1 60 1 60 21 0 21 -4 22 -75
21 -42 0 -77 -3 -79 -6z"/>
</g>
</svg>
