<?xml version="1.0" standalone="no"?>
<!DOCTYPE svg PUBLIC "-//W3C//DTD SVG 20010904//EN"
 "http://www.w3.org/TR/2001/REC-SVG-20010904/DTD/svg10.dtd">
<svg version="1.0" xmlns="http://www.w3.org/2000/svg"
 width="260.000000pt" height="260.000000pt" viewBox="0 0 260.000000 260.000000"
 preserveAspectRatio="xMidYMid meet">
<metadata>
Created by potrace 1.11, written by Peter Selinger 2001-2013
</metadata>
<g transform="translate(0.000000,260.000000) scale(0.100000,-0.100000)"
fill="#000000" stroke="none">
<path d="M0 1300 l0 -1300 1300 0 1300 0 0 1300 0 1300 -1300 0 -1300 0 0
-1300z m1422 614 c78 -18 94 -19 118 -13 9 3 14 -2 14 -13 -1 -10 4 -18 12
-18 16 0 97 -44 139 -75 17 -13 39 -24 50 -26 12 -3 20 -13 21 -26 1 -12 12
-35 26 -51 13 -16 30 -43 37 -60 7 -16 21 -32 32 -35 20 -5 26 -31 10 -41 -13
-9 22 -114 44 -129 12 -10 14 -16 7 -21 -17 -10 -15 -91 3 -106 18 -15 18
-101 -1 -115 -7 -5 -15 -35 -18 -65 -4 -47 -19 -121 -33 -155 -10 -27 -71
-125 -93 -151 -38 -45 -109 -99 -168 -128 -29 -15 -50 -31 -47 -35 2 -5 -9
-14 -26 -21 -24 -10 -33 -10 -38 -1 -6 9 -23 8 -72 -3 -141 -32 -233 -29 -376
11 -29 8 -61 12 -70 9 -24 -7 -48 8 -38 24 5 9 4 11 -4 6 -20 -13 -51 4 -51
27 0 14 -3 18 -8 10 -4 -7 -13 -9 -21 -4 -7 5 -11 13 -7 19 5 9 -23 53 -50 77
-12 11 -74 194 -74 219 0 8 -7 22 -15 30 -11 11 -13 21 -7 33 11 22 4 103 -9
103 -12 0 -11 37 1 45 12 8 13 72 1 79 -5 4 -4 21 2 43 9 27 9 37 0 40 -15 5
-5 72 13 94 8 8 14 22 14 30 0 24 46 159 58 171 7 7 12 16 12 21 0 21 69 93
122 127 31 21 54 41 50 44 -3 4 0 11 8 16 9 6 17 5 21 -2 5 -8 25 -7 71 5 94
24 97 25 185 26 45 0 115 -6 155 -15z"/>
<path d="M1004 1661 c-2 -2 -4 -182 -4 -398 l0 -394 233 3 c190 3 242 7 287
22 197 65 217 324 30 386 -22 7 -40 17 -40 21 0 4 20 17 45 29 67 32 98 78 98
144 0 75 -28 117 -101 153 -55 27 -64 28 -222 31 -91 1 -200 3 -243 5 -43 1
-80 0 -83 -2z m343 -163 c58 -26 71 -81 28 -123 -20 -21 -34 -25 -80 -25 l-55
0 0 80 0 80 40 0 c21 0 52 -6 67 -12z m54 -337 c37 -38 37 -62 -2 -100 -28
-28 -36 -31 -95 -31 l-64 0 0 80 0 80 66 0 c59 0 68 -3 95 -29z"/>
</g>
</svg>
